<svg xmlns="http://www.w3.org/2000/svg" width="15.63" height="15.63" viewBox="0 0 15.63 15.63"><defs><style>.a{fill:#fff;}</style></defs><path class="a" d="M10.394,7.815,15.23,2.98a1.367,1.367,0,0,0,0-1.934L14.585.4a1.367,1.367,0,0,0-1.934,0L7.816,5.237,2.981.4A1.367,1.367,0,0,0,1.047.4L.4,1.045a1.367,1.367,0,0,0,0,1.934L5.237,7.815.4,12.651a1.367,1.367,0,0,0,0,1.934l.645.645a1.367,1.367,0,0,0,1.934,0l4.835-4.835,4.835,4.835a1.367,1.367,0,0,0,1.934,0l.645-.645a1.367,1.367,0,0,0,0-1.934Zm0,0" transform="translate(0 0)"/></svg>