<svg xmlns="http://www.w3.org/2000/svg" xmlns:xlink="http://www.w3.org/1999/xlink" width="35" height="33" viewBox="0 0 35 33"><defs><style>.a{fill:#535353;}.b{clip-path:url(#a);}.c,.e{fill:#fff;}.d{fill:#959595;font-size:12px;font-family:Titillium-Regular, Titillium;}.f,.g{stroke:none;}.g{fill:#707070;}</style><clipPath id="a"><rect class="a" width="35" height="33" rx="5"/></clipPath></defs><g class="b"><g transform="translate(-18 38)"><g class="c"><path class="f" d="M 69.00031280517578 26.17490005493164 L 5.000401020050049 26.17490005493164 C 2.381020784378052 26.17490005493164 0.2500008046627045 24.04427909851074 0.2500008046627045 21.42539978027344 L 0.2500008046627045 9.950400352478027 C 0.2500008046627045 7.331019878387451 2.381020784378052 5.199999809265137 5.000401020050049 5.199999809265137 L 30.92866134643555 5.199999809265137 L 31.03044128417969 5.199999809265137 L 31.10328102111816 5.128900051116943 L 36 0.3493417799472809 L 40.89673233032227 5.128900051116943 L 40.96957015991211 5.199999809265137 L 41.07135009765625 5.199999809265137 L 69.00031280517578 5.199999809265137 C 71.61919403076172 5.199999809265137 73.74980163574219 7.331019878387451 73.74980163574219 9.950400352478027 L 73.74980163574219 21.42539978027344 C 73.74980163574219 24.04427909851074 71.61919403076172 26.17490005493164 69.00031280517578 26.17490005493164 Z"/><path class="g" d="M 69.00031280517578 25.92490005493164 C 71.48133850097656 25.92490005493164 73.49980163574219 23.90642929077148 73.49980163574219 21.42539978027344 L 73.49980163574219 9.950400352478027 C 73.49980163574219 7.468870162963867 71.48133850097656 5.449999809265137 69.00031280517578 5.449999809265137 L 41.07135009765625 5.449999809265137 L 40.86778259277344 5.449999809265137 L 40.72209930419922 5.307809829711914 L 36 0.6987033486366272 L 31.27791023254395 5.307809829711914 L 31.13223075866699 5.449999809265137 L 30.92866134643555 5.449999809265137 L 5.000401020050049 5.449999809265137 C 2.518870830535889 5.449999809265137 0.5000008344650269 7.468870162963867 0.5000008344650269 9.950400352478027 L 0.5000008344650269 21.42539978027344 C 0.5000008344650269 23.90642929077148 2.518870830535889 25.92490005493164 5.000401020050049 25.92490005493164 L 69.00031280517578 25.92490005493164 M 69.00031280517578 26.42490005493164 L 5.000401020050049 26.42490005493164 C 2.238300800323486 26.42490005493164 8.178710686479462e-07 24.18659973144531 8.178710686479462e-07 21.42539978027344 L 8.178710686479462e-07 9.950400352478027 C 8.178710686479462e-07 7.189199924468994 2.238300800323486 4.949999809265137 5.000401020050049 4.949999809265137 L 30.92866134643555 4.949999809265137 L 36 2.746581984069962e-08 L 41.07135009765625 4.949999809265137 L 69.00031280517578 4.949999809265137 C 71.76151275634766 4.949999809265137 73.99980163574219 7.189199924468994 73.99980163574219 9.950400352478027 L 73.99980163574219 21.42539978027344 C 73.99980163574219 24.18659973144531 71.76151275634766 26.42490005493164 69.00031280517578 26.42490005493164 Z"/></g><text class="d" transform="translate(37 20)"><tspan x="-25.938" y="0">Media List</tspan></text></g><g transform="translate(8.589 8.862)"><path class="e" d="M15.807,64.267H2.044a1.8,1.8,0,1,0,0,3.572H15.807a1.8,1.8,0,1,0,0-3.572Z" transform="translate(0 -58.246)"/><path class="e" d="M15.807,64.267H2.044a1.8,1.8,0,1,0,0,3.572H15.807a1.8,1.8,0,1,0,0-3.572Z" transform="translate(0 -64.267)"/><path class="e" d="M15.764,208.867H2.044a1.8,1.8,0,1,0,0,3.572h13.72a1.8,1.8,0,1,0,0-3.572Z" transform="translate(0 -196.825)"/></g></g></svg>