<svg xmlns="http://www.w3.org/2000/svg" width="17.851" height="15.614" viewBox="0 0 17.851 15.614"><defs><style>.a{fill:#fff;}</style></defs><g transform="translate(0 0)"><path class="a" d="M15.807,64.267H2.044a1.8,1.8,0,1,0,0,3.572H15.807a1.8,1.8,0,1,0,0-3.572Z" transform="translate(0 -58.246)"/><path class="a" d="M15.807,64.267H2.044a1.8,1.8,0,1,0,0,3.572H15.807a1.8,1.8,0,1,0,0-3.572Z" transform="translate(0 -64.267)"/><path class="a" d="M15.764,208.867H2.044a1.8,1.8,0,1,0,0,3.572h13.72a1.8,1.8,0,1,0,0-3.572Z" transform="translate(0 -196.825)"/></g></svg>