<svg xmlns="http://www.w3.org/2000/svg" xmlns:xlink="http://www.w3.org/1999/xlink" width="35" height="35" viewBox="0 0 35 35"><defs><style>.a{fill:#535353;}.b{clip-path:url(#a);}.c,.e{fill:#fff;}.d{fill:#959595;font-size:12px;font-family:Titillium-Regular, Titillium;}.f,.g{stroke:none;}.g{fill:#707070;}</style><clipPath id="a"><rect class="a" width="35" height="35" rx="5" transform="translate(1722 14)"/></clipPath></defs><g class="b" transform="translate(-1722 -14)"><g transform="translate(1703 52.929)"><g class="c" transform="translate(-9 -2)"><path class="f" d="M 80.00009918212891 28.82089996337891 L 14.00040149688721 28.82089996337891 C 11.38102149963379 28.82089996337891 9.250001907348633 26.69027900695801 9.250001907348633 24.0713996887207 L 9.250001907348633 12.07079982757568 C 9.250001907348633 9.451919555664063 11.38102149963379 7.321300029754639 14.00040149688721 7.321300029754639 L 40.92840194702148 7.321300029754639 L 41.03195190429688 7.321300029754639 L 41.10518264770508 7.248079776763916 L 45.99990081787109 2.353359937667847 L 50.89462280273438 7.248079776763916 L 50.96784973144531 7.321300029754639 L 51.07140350341797 7.321300029754639 L 80.00009918212891 7.321300029754639 C 82.61898040771484 7.321300029754639 84.74960327148438 9.451919555664063 84.74960327148438 12.07079982757568 L 84.74960327148438 24.0713996887207 C 84.74960327148438 26.69027900695801 82.61898040771484 28.82089996337891 80.00009918212891 28.82089996337891 Z"/><path class="g" d="M 80.00009918212891 28.57089996337891 C 82.48113250732422 28.57089996337891 84.49960327148438 26.55242919921875 84.49960327148438 24.0713996887207 L 84.49960327148438 12.07079982757568 C 84.49960327148438 9.589770317077637 82.48113250732422 7.571300029754639 80.00009918212891 7.571300029754639 L 51.07140350341797 7.571300029754639 L 50.86429214477539 7.571300029754639 L 50.71784973144531 7.424849987030029 L 45.99990081787109 2.706899881362915 L 41.28195190429688 7.424849987030029 L 41.13551330566406 7.571300029754639 L 40.92840194702148 7.571300029754639 L 14.00040149688721 7.571300029754639 C 11.51887130737305 7.571300029754639 9.500001907348633 9.589770317077637 9.500001907348633 12.07079982757568 L 9.500001907348633 24.0713996887207 C 9.500001907348633 26.55242919921875 11.51887130737305 28.57089996337891 14.00040149688721 28.57089996337891 L 80.00009918212891 28.57089996337891 M 80.00009918212891 29.07089996337891 L 14.00040149688721 29.07089996337891 C 11.23830127716064 29.07089996337891 9.000001907348633 26.83259963989258 9.000001907348633 24.0713996887207 L 9.000001907348633 12.07079982757568 C 9.000001907348633 9.309599876403809 11.23830127716064 7.071300029754639 14.00040149688721 7.071300029754639 L 40.92840194702148 7.071300029754639 L 45.99990081787109 1.999799847602844 L 51.07140350341797 7.071300029754639 L 80.00009918212891 7.071300029754639 C 82.76129913330078 7.071300029754639 84.99960327148438 9.309599876403809 84.99960327148438 12.07079982757568 L 84.99960327148438 24.0713996887207 C 84.99960327148438 26.83259963989258 82.76129913330078 29.07089996337891 80.00009918212891 29.07089996337891 Z"/></g><text class="d" transform="translate(9 20.071)"><tspan x="0" y="0">Send to Top</tspan></text></g><g transform="translate(1733.187 23.169)"><path class="e" d="M13.266.977,12.612.323A1.117,1.117,0,0,0,11.818,0a1.069,1.069,0,0,0-.785.323L6.794,4.562,2.555.323A1.069,1.069,0,0,0,1.77,0,1.117,1.117,0,0,0,.977.323L.331.977A1.082,1.082,0,0,0,0,1.771a1.037,1.037,0,0,0,.331.785L6.009,8.234a1.037,1.037,0,0,0,.785.331,1.082,1.082,0,0,0,.794-.331l5.678-5.678a1.069,1.069,0,0,0,.323-.785A1.117,1.117,0,0,0,13.266.977Z" transform="translate(13.589 8.565) rotate(180)"/></g><g transform="translate(1733.187 31.266)"><path class="e" d="M13.266.977,12.612.323A1.117,1.117,0,0,0,11.818,0a1.069,1.069,0,0,0-.785.323L6.794,4.562,2.555.323A1.069,1.069,0,0,0,1.77,0,1.117,1.117,0,0,0,.977.323L.331.977A1.082,1.082,0,0,0,0,1.771a1.037,1.037,0,0,0,.331.785L6.009,8.234a1.037,1.037,0,0,0,.785.331,1.082,1.082,0,0,0,.794-.331l5.678-5.678a1.069,1.069,0,0,0,.323-.785A1.117,1.117,0,0,0,13.266.977Z" transform="translate(13.589 8.565) rotate(180)"/></g></g></svg>