<svg xmlns="http://www.w3.org/2000/svg" xmlns:xlink="http://www.w3.org/1999/xlink" width="35" height="35" viewBox="0 0 35 35"><defs><style>.a{fill:#535353;}.b{clip-path:url(#a);}.c,.e{fill:#fff;}.d{fill:#959595;font-size:12px;font-family:Titillium-Regular, Titillium;}.f,.g{stroke:none;}.g{fill:#707070;}</style><clipPath id="a"><rect class="a" width="35" height="35" rx="5" transform="translate(1722 14)"/></clipPath></defs><g class="b" transform="translate(-1722 -14)"><g transform="translate(1694 52.929)"><g class="c" transform="translate(0 -2)"><path class="f" d="M 89.00009918212891 28.82090187072754 L 5.000401496887207 28.82090187072754 C 2.381025075912476 28.82090187072754 0.2500016391277313 26.69027900695801 0.2500016391277313 24.07139778137207 L 0.2500016391277313 12.07079696655273 C 0.2500016391277313 9.45191478729248 2.381025075912476 7.321302890777588 5.000401496887207 7.321302890777588 L 40.92840194702148 7.321302890777588 L 41.03195571899414 7.321302890777588 L 41.10517883300781 7.248079299926758 L 45.99989700317383 2.353350162506104 L 50.89462661743164 7.248079299926758 L 50.96784973144531 7.321302890777588 L 51.07140350341797 7.321302890777588 L 89.00009918212891 7.321302890777588 C 91.61898040771484 7.321302890777588 93.74960327148438 9.45191478729248 93.74960327148438 12.07079696655273 L 93.74960327148438 24.07139778137207 C 93.74960327148438 26.69027900695801 91.61898040771484 28.82090187072754 89.00009918212891 28.82090187072754 Z"/><path class="g" d="M 89.00009918212891 28.57089996337891 C 91.48114013671875 28.57089996337891 93.49960327148438 26.55243682861328 93.49960327148438 24.0713996887207 L 93.49960327148438 12.07079982757568 C 93.49960327148438 9.589762687683105 91.48114013671875 7.571300029754639 89.00009918212891 7.571300029754639 L 51.07140350341797 7.571300029754639 L 50.86428833007813 7.571300029754639 L 50.71784973144531 7.424849987030029 L 45.99990081787109 2.706899881362915 L 41.28195190429688 7.424849987030029 L 41.13551330566406 7.571300029754639 L 40.92840194702148 7.571300029754639 L 5.000401496887207 7.571300029754639 C 2.518876552581787 7.571300029754639 0.5000016093254089 9.589762687683105 0.5000016093254089 12.07079982757568 L 0.5000016093254089 24.0713996887207 C 0.5000016093254089 26.55243682861328 2.518876552581787 28.57089996337891 5.000401496887207 28.57089996337891 L 89.00009918212891 28.57089996337891 M 89.00009918212891 29.07089996337891 L 5.000401496887207 29.07089996337891 C 2.238301753997803 29.07089996337891 1.635742137295892e-06 26.83259963989258 1.635742137295892e-06 24.0713996887207 L 1.635742137295892e-06 12.07079982757568 C 1.635742137295892e-06 9.309599876403809 2.238301753997803 7.071300029754639 5.000401496887207 7.071300029754639 L 40.92840194702148 7.071300029754639 L 45.99990081787109 1.999799847602844 L 51.07140350341797 7.071300029754639 L 89.00009918212891 7.071300029754639 C 91.76129913330078 7.071300029754639 93.99960327148438 9.309599876403809 93.99960327148438 12.07079982757568 L 93.99960327148438 24.0713996887207 C 93.99960327148438 26.83259963989258 91.76129913330078 29.07089996337891 89.00009918212891 29.07089996337891 Z"/></g><text class="d" transform="translate(10 20.071)"><tspan x="0" y="0">Room Settings</tspan></text></g><g transform="translate(1713.675 -71.067)"><path class="e" d="M14.744,83.312l-.727-.727a1.241,1.241,0,0,0-.882-.359,1.188,1.188,0,0,0-.873.359L7.551,87.3,2.84,82.585a1.188,1.188,0,0,0-.872-.359,1.241,1.241,0,0,0-.882.359l-.717.727A1.2,1.2,0,0,0,0,84.194a1.152,1.152,0,0,0,.368.872l6.311,6.311a1.152,1.152,0,0,0,.872.368,1.2,1.2,0,0,0,.882-.368l6.311-6.311a1.188,1.188,0,0,0,.359-.872A1.242,1.242,0,0,0,14.744,83.312Z" transform="translate(18.755 16.082)"/></g></g></svg>