<svg xmlns="http://www.w3.org/2000/svg" width="13.589" height="8.565" viewBox="0 0 13.589 8.565"><defs><style>.a{fill:#fff;}</style></defs><g transform="translate(0 0)"><path class="a" d="M13.266.977,12.612.323A1.117,1.117,0,0,0,11.818,0a1.069,1.069,0,0,0-.785.323L6.794,4.562,2.555.323A1.069,1.069,0,0,0,1.77,0,1.117,1.117,0,0,0,.977.323L.331.977A1.082,1.082,0,0,0,0,1.771a1.037,1.037,0,0,0,.331.785L6.009,8.234a1.037,1.037,0,0,0,.785.331,1.082,1.082,0,0,0,.794-.331l5.678-5.678a1.069,1.069,0,0,0,.323-.785A1.117,1.117,0,0,0,13.266.977Z" transform="translate(13.589 8.565) rotate(180)"/></g></svg>