<svg xmlns="http://www.w3.org/2000/svg" width="15.103" height="9.519" viewBox="0 0 15.103 9.519"><defs><style>.a{fill:#fff;}</style></defs><g transform="translate(-18.755 -98.308)"><path class="a" d="M14.744,83.312l-.727-.727a1.241,1.241,0,0,0-.882-.359,1.188,1.188,0,0,0-.873.359L7.551,87.3,2.84,82.585a1.188,1.188,0,0,0-.872-.359,1.241,1.241,0,0,0-.882.359l-.717.727A1.2,1.2,0,0,0,0,84.194a1.152,1.152,0,0,0,.368.872l6.311,6.311a1.152,1.152,0,0,0,.872.368,1.2,1.2,0,0,0,.882-.368l6.311-6.311a1.188,1.188,0,0,0,.359-.872A1.242,1.242,0,0,0,14.744,83.312Z" transform="translate(18.755 16.082)"/></g></svg>