<svg xmlns="http://www.w3.org/2000/svg" xmlns:xlink="http://www.w3.org/1999/xlink" width="266" height="65.633" viewBox="0 0 266 65.633"><defs><style>.a{fill:url(#a);}.b{fill:#fff;}</style><linearGradient id="a" x1="0.5" y1="-0.031" x2="0.5" y2="1.01" gradientUnits="objectBoundingBox"><stop offset="0" stop-color="#6cffe0"/><stop offset="0.138" stop-color="#6af8e0"/><stop offset="0.332" stop-color="#66e5e2"/><stop offset="0.561" stop-color="#60c7e5"/><stop offset="0.813" stop-color="#589dea"/><stop offset="1" stop-color="#517aee"/></linearGradient></defs><path class="a" d="M269.555,353.283h0a8.671,8.671,0,0,1-8.671-8.671V322.634a8.671,8.671,0,0,1,8.671-8.671h0a8.671,8.671,0,0,1,8.671,8.671v21.977A8.671,8.671,0,0,1,269.555,353.283Zm36.928,4.485v-48.29a8.671,8.671,0,0,0-8.671-8.671h0a8.671,8.671,0,0,0-8.671,8.671v48.29a8.671,8.671,0,0,0,8.671,8.671h0A8.671,8.671,0,0,0,306.483,357.768Zm28.257-13.157V322.634a8.671,8.671,0,0,0-8.671-8.671h0a8.671,8.671,0,0,0-8.671,8.671v21.977a8.671,8.671,0,0,0,8.671,8.671h0A8.671,8.671,0,0,0,334.74,344.611Z" transform="translate(-260.884 -300.806)"/><g transform="translate(94.021 11.979)"><path class="b" d="M706.189,397.352a20.42,20.42,0,0,1-6.675-1.058,14.412,14.412,0,0,1-4.939-2.728,5.021,5.021,0,0,1-1.942-3.727,5.218,5.218,0,0,1,.53-2.169,6.045,6.045,0,0,1,1.438-1.964,3.171,3.171,0,0,1,2.17-.875,3.535,3.535,0,0,1,2.076.679c.571.406,1.2.888,1.873,1.432a10.145,10.145,0,0,0,2.245,1.357,7.486,7.486,0,0,0,3.061.561,8.474,8.474,0,0,0,2.356-.336,4.179,4.179,0,0,0,1.828-1.033,2.4,2.4,0,0,0,.662-1.788,3.01,3.01,0,0,0-.811-2.128,8.675,8.675,0,0,0-2.359-1.733c-1.012-.533-2.141-1.088-3.356-1.651s-2.467-1.192-3.7-1.864a18.445,18.445,0,0,1-3.485-2.453,10.867,10.867,0,0,1-2.581-3.487,11.352,11.352,0,0,1-.967-4.868,11.01,11.01,0,0,1,1.253-5.411,10.351,10.351,0,0,1,3.352-3.635,15.007,15.007,0,0,1,4.625-2.019,21.018,21.018,0,0,1,5.143-.64c.736,0,1.719.055,2.925.165a21.947,21.947,0,0,1,3.694.666,9.272,9.272,0,0,1,3.227,1.517,3.454,3.454,0,0,1,1.424,2.878,6.19,6.19,0,0,1-.376,1.907,5.732,5.732,0,0,1-1.178,2.032,2.9,2.9,0,0,1-2.256.961,3.867,3.867,0,0,1-2.052-.581,14.336,14.336,0,0,0-2.059-1,9.263,9.263,0,0,0-3.348-.485,8.6,8.6,0,0,0-2.977.435,3.4,3.4,0,0,0-1.573,1.049,2.195,2.195,0,0,0-.459,1.347,2.17,2.17,0,0,0,.783,1.665,9.657,9.657,0,0,0,2.37,1.507c1.045.495,2.175,1.006,3.362,1.518a37.34,37.34,0,0,1,3.719,1.873,18.355,18.355,0,0,1,3.486,2.593,11.344,11.344,0,0,1,2.577,3.735,13.107,13.107,0,0,1,.962,5.237,12.277,12.277,0,0,1-1.841,6.854,11.644,11.644,0,0,1-5,4.241A17.3,17.3,0,0,1,706.189,397.352Z" transform="translate(-692.633 -355.813)"/><path class="b" d="M707.753,398.481a19.892,19.892,0,0,1-6.533-1.034,13.921,13.921,0,0,1-4.791-2.64,4.591,4.591,0,0,1-1.8-3.4,4.766,4.766,0,0,1,.49-1.987,5.577,5.577,0,0,1,1.334-1.824,2.737,2.737,0,0,1,1.878-.762,3.092,3.092,0,0,1,1.824.6q.843.6,1.851,1.416a10.537,10.537,0,0,0,2.341,1.415,7.87,7.87,0,0,0,3.239.6,8.864,8.864,0,0,0,2.477-.354,4.582,4.582,0,0,0,2.014-1.143,2.835,2.835,0,0,0,.789-2.1,3.458,3.458,0,0,0-.925-2.423,9.063,9.063,0,0,0-2.477-1.824q-1.552-.817-3.375-1.661t-3.675-1.851a17.926,17.926,0,0,1-3.4-2.4,10.384,10.384,0,0,1-2.477-3.348,10.871,10.871,0,0,1-.926-4.682,10.536,10.536,0,0,1,1.2-5.2,9.874,9.874,0,0,1,3.212-3.484,14.5,14.5,0,0,1,4.491-1.96,20.492,20.492,0,0,1,5.036-.626q1.088,0,2.885.163a21.421,21.421,0,0,1,3.62.653,8.8,8.8,0,0,1,3.076,1.443,3.025,3.025,0,0,1,1.252,2.532,5.827,5.827,0,0,1-.354,1.769,5.272,5.272,0,0,1-1.089,1.878,2.477,2.477,0,0,1-1.933.817,3.422,3.422,0,0,1-1.824-.517,14.686,14.686,0,0,0-2.123-1.034A9.631,9.631,0,0,0,709.55,365a8.985,8.985,0,0,0-3.13.463,3.8,3.8,0,0,0-1.769,1.2,2.64,2.64,0,0,0-.544,1.606,2.605,2.605,0,0,0,.925,1.987,10.04,10.04,0,0,0,2.477,1.579q1.552.735,3.375,1.524a36.8,36.8,0,0,1,3.675,1.851,17.843,17.843,0,0,1,3.4,2.531,10.859,10.859,0,0,1,2.477,3.593,12.618,12.618,0,0,1,.926,5.063,11.8,11.8,0,0,1-1.769,6.615,11.164,11.164,0,0,1-4.818,4.083A16.788,16.788,0,0,1,707.753,398.481Z" transform="translate(-694.197 -357.377)"/><path class="b" d="M842.986,407.368c-3.534,0-6.291-.774-8.194-2.3-1.932-1.55-2.912-4.018-2.912-7.336V372.307a2.511,2.511,0,0,1,1.6-2.237,6.614,6.614,0,0,1,6.148,0,2.511,2.511,0,0,1,1.565,2.236v8.275h5.716a2.109,2.109,0,0,1,1.934,1.18,4.672,4.672,0,0,1,.57,2.25,4.619,4.619,0,0,1-.573,2.281,2.114,2.114,0,0,1-1.932,1.148H841.19v10.289a1.9,1.9,0,0,0,.353,1.344,2.1,2.1,0,0,0,1.443.344h2.341a3.664,3.664,0,0,1,3.065,1.284,4.278,4.278,0,0,1,0,5.413,3.7,3.7,0,0,1-3.062,1.252Z" transform="translate(-801.557 -366.373)"/><path class="b" d="M844.551,408.5q-5.173,0-7.921-2.2t-2.749-7V373.872a2.1,2.1,0,0,1,1.361-1.851,6.066,6.066,0,0,1,2.831-.708,6.127,6.127,0,0,1,2.913.708,2.1,2.1,0,0,1,1.334,1.851v8.711h6.152a1.668,1.668,0,0,1,1.552.953,4.219,4.219,0,0,1,.517,2.042,4.17,4.17,0,0,1-.517,2.069,1.673,1.673,0,0,1-1.552.926h-6.152V399.3a2.239,2.239,0,0,0,.49,1.66,2.535,2.535,0,0,0,1.742.463h2.341a3.241,3.241,0,0,1,2.722,1.116,3.842,3.842,0,0,1,0,4.873,3.276,3.276,0,0,1-2.722,1.089Z" transform="translate(-803.121 -367.938)"/><path class="b" d="M927.953,446.675a5.512,5.512,0,0,1-3.216-.895,2.668,2.668,0,0,1-1.357-2.154V422.884a2.526,2.526,0,0,1,1.381-2.224,6.109,6.109,0,0,1,3.193-.771,5.246,5.246,0,0,1,2.9.778,2.552,2.552,0,0,1,1.287,2.216v.4a10.635,10.635,0,0,1,.793-.987,9.793,9.793,0,0,1,2.393-1.937,5.686,5.686,0,0,1,2.857-.793h1.579a3.086,3.086,0,0,1,2.432,1.247,4.342,4.342,0,0,1,1,2.836,4.416,4.416,0,0,1-1,2.89,3.084,3.084,0,0,1-2.432,1.247h-1.579a4.294,4.294,0,0,0-2.572.922,7.038,7.038,0,0,0-2.1,2.644,9.387,9.387,0,0,0-.827,4.111v8.166a2.654,2.654,0,0,1-1.45,2.162A5.915,5.915,0,0,1,927.953,446.675Z" transform="translate(-873.131 -405.68)"/><path class="b" d="M929.518,447.8a5.065,5.065,0,0,1-2.967-.817,2.255,2.255,0,0,1-1.171-1.8V424.448a2.108,2.108,0,0,1,1.171-1.851,5.66,5.66,0,0,1,2.967-.708,4.8,4.8,0,0,1,2.668.708,2.132,2.132,0,0,1,1.089,1.851v2.014a9.061,9.061,0,0,1,1.552-2.314,9.318,9.318,0,0,1,2.287-1.851,5.232,5.232,0,0,1,2.64-.735h1.579a2.66,2.66,0,0,1,2.1,1.089,3.9,3.9,0,0,1,.9,2.559,3.973,3.973,0,0,1-.9,2.613,2.658,2.658,0,0,1-2.1,1.089h-1.579a4.7,4.7,0,0,0-2.831,1.007,7.431,7.431,0,0,0-2.232,2.8,9.772,9.772,0,0,0-.871,4.3v8.166a2.247,2.247,0,0,1-1.252,1.8A5.462,5.462,0,0,1,929.518,447.8Z" transform="translate(-874.695 -407.245)"/><path class="b" d="M1033.477,448.393a12.848,12.848,0,0,1-6.421-1.663,13.264,13.264,0,0,1-4.67-4.362,10.621,10.621,0,0,1-1.757-5.844V424.112a2.652,2.652,0,0,1,1.45-2.161,5.809,5.809,0,0,1,3.232-.887,5.714,5.714,0,0,1,3.178.887,2.654,2.654,0,0,1,1.45,2.161v12.413a3.388,3.388,0,0,0,.484,1.739,4.212,4.212,0,0,0,1.309,1.383,3.162,3.162,0,0,0,3.491,0,3.965,3.965,0,0,0,1.277-1.375,3.548,3.548,0,0,0,.462-1.747V424.057a2.562,2.562,0,0,1,1.492-2.17,6.14,6.14,0,0,1,3.19-.824,5.9,5.9,0,0,1,3.259.833,2.576,2.576,0,0,1,1.368,2.162v12.467a10.719,10.719,0,0,1-1.757,5.9,13.119,13.119,0,0,1-4.644,4.335A12.868,12.868,0,0,1,1033.477,448.393Z" transform="translate(-949.202 -406.854)"/><path class="b" d="M1035.042,449.522a12.361,12.361,0,0,1-6.206-1.606,12.778,12.778,0,0,1-4.519-4.219,10.146,10.146,0,0,1-1.688-5.607V425.676a2.245,2.245,0,0,1,1.252-1.8,5.357,5.357,0,0,1,2.994-.817,5.263,5.263,0,0,1,2.94.817,2.247,2.247,0,0,1,1.252,1.8v12.413a3.8,3.8,0,0,0,.544,1.96,4.619,4.619,0,0,0,1.443,1.524,3.6,3.6,0,0,0,3.974,0,4.373,4.373,0,0,0,1.415-1.524,3.958,3.958,0,0,0,.517-1.96V425.622a2.154,2.154,0,0,1,1.279-1.8,5.688,5.688,0,0,1,2.967-.762,5.451,5.451,0,0,1,3.021.762,2.163,2.163,0,0,1,1.171,1.8v12.467a10.243,10.243,0,0,1-1.688,5.662,12.627,12.627,0,0,1-4.491,4.192A12.38,12.38,0,0,1,1035.042,449.522Z" transform="translate(-950.767 -408.418)"/><path class="b" d="M1191.394,446.675a5.712,5.712,0,0,1-3.178-.887,2.652,2.652,0,0,1-1.45-2.162v-12.2a4.231,4.231,0,0,0-.462-2.074,3.014,3.014,0,0,0-1.19-1.219,3.223,3.223,0,0,0-1.56-.409,2.821,2.821,0,0,0-1.44.4,3.217,3.217,0,0,0-1.149,1.2,4.2,4.2,0,0,0-.459,2.1v12.249a2.466,2.466,0,0,1-1.591,2.357,7.488,7.488,0,0,1-3.091.637,7.411,7.411,0,0,1-3.007-.636,2.466,2.466,0,0,1-1.621-2.359V431.486a4.047,4.047,0,0,0-.485-2.066,3.187,3.187,0,0,0-2.782-1.636,2.975,2.975,0,0,0-1.45.381,2.8,2.8,0,0,0-1.107,1.161,4.409,4.409,0,0,0-.437,2.105v12.2a2.654,2.654,0,0,1-1.45,2.162,5.815,5.815,0,0,1-3.232.887,5.613,5.613,0,0,1-3.271-.895,2.668,2.668,0,0,1-1.357-2.154V422.884a2.526,2.526,0,0,1,1.381-2.224,6.225,6.225,0,0,1,3.247-.771,5.143,5.143,0,0,1,2.85.778,2.56,2.56,0,0,1,1.285,2.107,10.886,10.886,0,0,1,2.036-1.851,7.961,7.961,0,0,1,4.717-1.36,6.119,6.119,0,0,1,4.212,1.637,9.323,9.323,0,0,1,2.282,3.219,9.9,9.9,0,0,1,3.325-3.458,9.143,9.143,0,0,1,4.772-1.4,9.8,9.8,0,0,1,5.04,1.394,10.516,10.516,0,0,1,3.834,4.057,13.141,13.141,0,0,1,1.47,6.417v12.2a2.654,2.654,0,0,1-1.45,2.162A5.815,5.815,0,0,1,1191.394,446.675Z" transform="translate(-1054.801 -405.68)"/><path class="b" d="M1161.818,447.8a5.167,5.167,0,0,1-3.022-.817,2.255,2.255,0,0,1-1.17-1.8V424.448a2.109,2.109,0,0,1,1.17-1.851,5.778,5.778,0,0,1,3.022-.708,4.7,4.7,0,0,1,2.613.708,2.132,2.132,0,0,1,1.089,1.851V425.7a9.391,9.391,0,0,1,2.722-2.858,7.5,7.5,0,0,1,4.464-1.279,5.671,5.671,0,0,1,3.92,1.524,9.144,9.144,0,0,1,2.5,3.92,9.874,9.874,0,0,1,3.62-4.11,8.674,8.674,0,0,1,4.546-1.334,9.328,9.328,0,0,1,4.818,1.334,10.039,10.039,0,0,1,3.675,3.893,12.658,12.658,0,0,1,1.416,6.206v12.195a2.248,2.248,0,0,1-1.252,1.8,5.362,5.362,0,0,1-2.994.817,5.259,5.259,0,0,1-2.94-.817,2.245,2.245,0,0,1-1.252-1.8V433a4.636,4.636,0,0,0-.517-2.286,3.467,3.467,0,0,0-1.361-1.388,3.638,3.638,0,0,0-1.769-.463,3.238,3.238,0,0,0-1.661.463,3.631,3.631,0,0,0-1.307,1.361,4.6,4.6,0,0,0-.517,2.314v12.249a2.025,2.025,0,0,1-1.334,1.96,7.022,7.022,0,0,1-2.913.6,6.946,6.946,0,0,1-2.831-.6,2.025,2.025,0,0,1-1.361-1.96V433.05a4.451,4.451,0,0,0-.544-2.287,3.622,3.622,0,0,0-3.157-1.851,3.389,3.389,0,0,0-1.661.436,3.247,3.247,0,0,0-1.279,1.334,4.809,4.809,0,0,0-.49,2.314v12.195a2.248,2.248,0,0,1-1.252,1.8A5.361,5.361,0,0,1,1161.818,447.8Z" transform="translate(-1056.366 -407.245)"/><path class="b" d="M1363.446,446.675a5.511,5.511,0,0,1-3.216-.895,2.667,2.667,0,0,1-1.357-2.154V422.884a2.526,2.526,0,0,1,1.381-2.224,6.109,6.109,0,0,1,3.193-.771,5.246,5.246,0,0,1,2.9.778,2.552,2.552,0,0,1,1.287,2.216v.4a10.644,10.644,0,0,1,.793-.987,9.8,9.8,0,0,1,2.393-1.937,5.686,5.686,0,0,1,2.857-.793h1.579a3.087,3.087,0,0,1,2.432,1.247,4.342,4.342,0,0,1,1,2.836,4.416,4.416,0,0,1-1,2.89,3.084,3.084,0,0,1-2.432,1.247h-1.579a4.292,4.292,0,0,0-2.572.922,7.035,7.035,0,0,0-2.1,2.644,9.388,9.388,0,0,0-.827,4.111v8.166a2.654,2.654,0,0,1-1.45,2.162A5.914,5.914,0,0,1,1363.446,446.675Z" transform="translate(-1213.788 -405.68)"/><path class="b" d="M1365.011,447.8a5.065,5.065,0,0,1-2.967-.817,2.255,2.255,0,0,1-1.171-1.8V424.448a2.109,2.109,0,0,1,1.171-1.851,5.66,5.66,0,0,1,2.967-.708,4.8,4.8,0,0,1,2.667.708,2.132,2.132,0,0,1,1.089,1.851v2.014a9.064,9.064,0,0,1,1.552-2.314,9.32,9.32,0,0,1,2.287-1.851,5.232,5.232,0,0,1,2.641-.735h1.579a2.66,2.66,0,0,1,2.1,1.089,3.9,3.9,0,0,1,.9,2.559,3.973,3.973,0,0,1-.9,2.613,2.658,2.658,0,0,1-2.1,1.089h-1.579a4.7,4.7,0,0,0-2.831,1.007,7.43,7.43,0,0,0-2.232,2.8,9.772,9.772,0,0,0-.871,4.3v8.166a2.248,2.248,0,0,1-1.252,1.8A5.463,5.463,0,0,1,1365.011,447.8Z" transform="translate(-1215.353 -407.245)"/><path class="b" d="M1444.751,512.318a4.406,4.406,0,0,1-3.309-1.387,4.676,4.676,0,0,1,0-6.512,4.614,4.614,0,0,1,7.879,3.272,4.507,4.507,0,0,1-1.349,3.244A4.373,4.373,0,0,1,1444.751,512.318Z" transform="translate(-1277.344 -470.997)"/><path class="b" d="M1446.315,513.447a3.969,3.969,0,0,1-2.994-1.252,4.24,4.24,0,0,1,0-5.907,4.178,4.178,0,0,1,7.132,2.967,4.068,4.068,0,0,1-1.225,2.94A3.935,3.935,0,0,1,1446.315,513.447Z" transform="translate(-1278.909 -472.561)"/></g></svg>