<svg xmlns="http://www.w3.org/2000/svg" width="93.587" height="23.105" viewBox="0 0 93.587 23.105"><defs><style>.a{fill:#fff;}</style></defs><path class="a" d="M382.053,395.474h0A3.053,3.053,0,0,1,379,392.421v-7.737a3.053,3.053,0,0,1,3.053-3.053h0a3.053,3.053,0,0,1,3.053,3.053v7.737A3.053,3.053,0,0,1,382.053,395.474Zm13,1.579v-17A3.053,3.053,0,0,0,392,377h0a3.053,3.053,0,0,0-3.053,3.053v17A3.053,3.053,0,0,0,392,400.105h0A3.053,3.053,0,0,0,395.053,397.053ZM405,392.421v-7.737a3.053,3.053,0,0,0-3.053-3.053h0a3.053,3.053,0,0,0-3.053,3.053v7.737a3.053,3.053,0,0,0,3.053,3.053h0A3.053,3.053,0,0,0,405,392.421Z" transform="translate(-379 -377)"/><path class="a" d="M697.4,370.428a7.185,7.185,0,0,1-2.349-.372,5.071,5.071,0,0,1-1.738-.96,1.767,1.767,0,0,1-.683-1.311,1.835,1.835,0,0,1,.186-.763,2.126,2.126,0,0,1,.506-.691,1.116,1.116,0,0,1,.764-.308,1.244,1.244,0,0,1,.73.239c.2.143.423.312.659.5a3.568,3.568,0,0,0,.79.477,2.634,2.634,0,0,0,1.077.2,2.981,2.981,0,0,0,.829-.118,1.471,1.471,0,0,0,.643-.363.843.843,0,0,0,.233-.629,1.059,1.059,0,0,0-.285-.749,3.053,3.053,0,0,0-.83-.61c-.356-.187-.753-.383-1.181-.581s-.868-.419-1.3-.656a6.489,6.489,0,0,1-1.226-.863,3.825,3.825,0,0,1-.908-1.227,3.994,3.994,0,0,1-.34-1.713,3.874,3.874,0,0,1,.441-1.9,3.642,3.642,0,0,1,1.179-1.279,5.278,5.278,0,0,1,1.627-.71,7.393,7.393,0,0,1,1.809-.225c.259,0,.6.02,1.029.058a7.722,7.722,0,0,1,1.3.234,3.264,3.264,0,0,1,1.135.534,1.215,1.215,0,0,1,.5,1.013,2.179,2.179,0,0,1-.132.671,2.017,2.017,0,0,1-.415.715,1.022,1.022,0,0,1-.794.338,1.36,1.36,0,0,1-.722-.2,5.048,5.048,0,0,0-.724-.353,3.259,3.259,0,0,0-1.178-.171,3.026,3.026,0,0,0-1.047.153,1.2,1.2,0,0,0-.553.369.772.772,0,0,0-.161.474.764.764,0,0,0,.276.586,3.4,3.4,0,0,0,.834.53c.367.174.765.354,1.183.534a13.135,13.135,0,0,1,1.308.659,6.456,6.456,0,0,1,1.226.912,3.99,3.99,0,0,1,.906,1.314,4.611,4.611,0,0,1,.339,1.843,4.32,4.32,0,0,1-.648,2.411,4.1,4.1,0,0,1-1.76,1.492A6.086,6.086,0,0,1,697.4,370.428Z" transform="translate(-659.554 -351.599)"/><path class="a" d="M699.249,372.121a7,7,0,0,1-2.3-.364,4.9,4.9,0,0,1-1.686-.929,1.615,1.615,0,0,1-.632-1.2,1.678,1.678,0,0,1,.172-.7,1.962,1.962,0,0,1,.469-.642.962.962,0,0,1,.661-.268,1.088,1.088,0,0,1,.642.211q.3.211.651.5a3.708,3.708,0,0,0,.824.5,2.769,2.769,0,0,0,1.14.211,3.118,3.118,0,0,0,.871-.124,1.613,1.613,0,0,0,.709-.4,1,1,0,0,0,.278-.737,1.216,1.216,0,0,0-.326-.852,3.19,3.19,0,0,0-.872-.642q-.546-.287-1.188-.584t-1.293-.651a6.307,6.307,0,0,1-1.2-.843,3.653,3.653,0,0,1-.872-1.178,3.825,3.825,0,0,1-.326-1.647,3.706,3.706,0,0,1,.421-1.829,3.474,3.474,0,0,1,1.13-1.226,5.1,5.1,0,0,1,1.58-.69,7.211,7.211,0,0,1,1.772-.22q.383,0,1.015.057a7.538,7.538,0,0,1,1.274.23,3.1,3.1,0,0,1,1.082.508,1.065,1.065,0,0,1,.44.891,2.051,2.051,0,0,1-.124.623,1.855,1.855,0,0,1-.383.661.871.871,0,0,1-.68.287,1.2,1.2,0,0,1-.642-.182,5.168,5.168,0,0,0-.747-.364,3.388,3.388,0,0,0-1.235-.182,3.161,3.161,0,0,0-1.1.163,1.338,1.338,0,0,0-.622.421.929.929,0,0,0-.192.565.916.916,0,0,0,.326.7,3.531,3.531,0,0,0,.871.555q.546.259,1.188.536a12.95,12.95,0,0,1,1.293.651,6.275,6.275,0,0,1,1.2.891,3.822,3.822,0,0,1,.872,1.264,4.439,4.439,0,0,1,.326,1.781,4.151,4.151,0,0,1-.622,2.327,3.928,3.928,0,0,1-1.7,1.437A5.906,5.906,0,0,1,699.249,372.121Z" transform="translate(-661.4 -353.445)"/><path class="a" d="M835.787,382.7a4.528,4.528,0,0,1-2.883-.809,3.124,3.124,0,0,1-1.025-2.581v-8.945a.883.883,0,0,1,.561-.787,2.327,2.327,0,0,1,2.163,0,.884.884,0,0,1,.551.787v2.911h2.011a.742.742,0,0,1,.681.415,1.644,1.644,0,0,1,.2.792,1.625,1.625,0,0,1-.2.8.744.744,0,0,1-.68.4h-2.011v3.62a.67.67,0,0,0,.124.473.738.738,0,0,0,.508.121h.824a1.289,1.289,0,0,1,1.078.452,1.505,1.505,0,0,1,0,1.9,1.3,1.3,0,0,1-1.077.441Z" transform="translate(-788.132 -364.064)"/><path class="a" d="M837.634,384.4a4.363,4.363,0,0,1-2.787-.776,2.967,2.967,0,0,1-.967-2.461v-8.945a.739.739,0,0,1,.479-.651,2.133,2.133,0,0,1,1-.249,2.155,2.155,0,0,1,1.025.249.739.739,0,0,1,.469.651v3.065h2.164a.587.587,0,0,1,.546.335,1.484,1.484,0,0,1,.182.718,1.466,1.466,0,0,1-.182.728.588.588,0,0,1-.546.326h-2.164v3.773a.788.788,0,0,0,.172.584.892.892,0,0,0,.613.163h.824a1.141,1.141,0,0,1,.958.393,1.352,1.352,0,0,1,0,1.714,1.153,1.153,0,0,1-.958.383Z" transform="translate(-789.979 -365.911)"/><path class="a" d="M924.989,429.1a1.939,1.939,0,0,1-1.132-.315.938.938,0,0,1-.477-.758v-7.3a.889.889,0,0,1,.486-.782,2.149,2.149,0,0,1,1.123-.271,1.845,1.845,0,0,1,1.022.274.9.9,0,0,1,.453.78v.139a3.737,3.737,0,0,1,.279-.347,3.447,3.447,0,0,1,.842-.681,2,2,0,0,1,1.005-.279h.555A1.086,1.086,0,0,1,930,420a1.528,1.528,0,0,1,.351,1,1.554,1.554,0,0,1-.351,1.017,1.085,1.085,0,0,1-.856.439h-.555a1.511,1.511,0,0,0-.9.324,2.475,2.475,0,0,0-.738.93,3.3,3.3,0,0,0-.291,1.446v2.873a.934.934,0,0,1-.51.76A2.081,2.081,0,0,1,924.989,429.1Z" transform="translate(-872.621 -410.464)"/><path class="a" d="M926.836,430.8a1.783,1.783,0,0,1-1.044-.287.794.794,0,0,1-.412-.632v-7.3a.742.742,0,0,1,.412-.651,1.992,1.992,0,0,1,1.044-.249,1.688,1.688,0,0,1,.939.249.75.75,0,0,1,.383.651v.709a3.184,3.184,0,0,1,.546-.814,3.276,3.276,0,0,1,.8-.651,1.841,1.841,0,0,1,.929-.259h.555a.936.936,0,0,1,.737.383,1.372,1.372,0,0,1,.316.9,1.4,1.4,0,0,1-.316.919.935.935,0,0,1-.737.383h-.555a1.653,1.653,0,0,0-1,.354,2.616,2.616,0,0,0-.785.986,3.439,3.439,0,0,0-.306,1.513v2.873a.791.791,0,0,1-.441.632A1.922,1.922,0,0,1,926.836,430.8Z" transform="translate(-874.468 -412.311)"/><path class="a" d="M1025.149,430.678a4.52,4.52,0,0,1-2.259-.585,4.668,4.668,0,0,1-1.643-1.535,3.737,3.737,0,0,1-.618-2.056v-4.367a.933.933,0,0,1,.51-.76,2.044,2.044,0,0,1,1.137-.312,2.01,2.01,0,0,1,1.118.312.934.934,0,0,1,.51.76V426.5a1.191,1.191,0,0,0,.17.612,1.479,1.479,0,0,0,.46.487,1.112,1.112,0,0,0,1.228,0,1.4,1.4,0,0,0,.449-.484,1.247,1.247,0,0,0,.162-.615v-4.386a.9.9,0,0,1,.525-.764,2.16,2.16,0,0,1,1.122-.29,2.076,2.076,0,0,1,1.147.293.906.906,0,0,1,.481.76V426.5a3.77,3.77,0,0,1-.618,2.075,4.616,4.616,0,0,1-1.634,1.525A4.527,4.527,0,0,1,1025.149,430.678Z" transform="translate(-962.42 -411.849)"/><path class="a" d="M1027,432.372a4.349,4.349,0,0,1-2.183-.565,4.5,4.5,0,0,1-1.59-1.484,3.57,3.57,0,0,1-.594-1.973v-4.367a.79.79,0,0,1,.441-.632,1.884,1.884,0,0,1,1.053-.287,1.852,1.852,0,0,1,1.034.287.791.791,0,0,1,.441.632v4.367a1.337,1.337,0,0,0,.192.69,1.625,1.625,0,0,0,.508.536,1.265,1.265,0,0,0,1.4,0,1.539,1.539,0,0,0,.5-.536,1.394,1.394,0,0,0,.182-.69v-4.386a.758.758,0,0,1,.45-.632,2,2,0,0,1,1.044-.268,1.917,1.917,0,0,1,1.063.268.761.761,0,0,1,.412.632v4.386a3.6,3.6,0,0,1-.594,1.992,4.442,4.442,0,0,1-1.58,1.475A4.355,4.355,0,0,1,1027,432.372Z" transform="translate(-964.266 -413.696)"/><path class="a" d="M1168.21,429.1a2.01,2.01,0,0,1-1.118-.312.933.933,0,0,1-.51-.76v-4.291a1.489,1.489,0,0,0-.162-.73,1.061,1.061,0,0,0-.419-.429,1.134,1.134,0,0,0-.549-.144.993.993,0,0,0-.507.142,1.131,1.131,0,0,0-.4.423,1.475,1.475,0,0,0-.162.738v4.31a.868.868,0,0,1-.56.829,2.635,2.635,0,0,1-1.088.224,2.607,2.607,0,0,1-1.058-.224.868.868,0,0,1-.57-.83v-4.291a1.424,1.424,0,0,0-.17-.727,1.121,1.121,0,0,0-.979-.576,1.047,1.047,0,0,0-.51.134.986.986,0,0,0-.39.409,1.552,1.552,0,0,0-.154.741v4.291a.934.934,0,0,1-.51.76,2.046,2.046,0,0,1-1.137.312,1.975,1.975,0,0,1-1.151-.315.938.938,0,0,1-.477-.758v-7.3a.889.889,0,0,1,.486-.782,2.19,2.19,0,0,1,1.142-.271,1.809,1.809,0,0,1,1,.274.9.9,0,0,1,.452.741,3.829,3.829,0,0,1,.717-.651,2.8,2.8,0,0,1,1.659-.479,2.153,2.153,0,0,1,1.482.576,3.281,3.281,0,0,1,.8,1.132,3.482,3.482,0,0,1,1.17-1.217,3.216,3.216,0,0,1,1.679-.491,3.448,3.448,0,0,1,1.773.491,3.7,3.7,0,0,1,1.349,1.427,4.624,4.624,0,0,1,.517,2.258v4.291a.934.934,0,0,1-.51.76A2.046,2.046,0,0,1,1168.21,429.1Z" transform="translate(-1087.073 -410.464)"/><path class="a" d="M1159.1,430.8a1.818,1.818,0,0,1-1.063-.287.793.793,0,0,1-.412-.632v-7.3a.742.742,0,0,1,.412-.651,2.033,2.033,0,0,1,1.063-.249,1.653,1.653,0,0,1,.919.249.75.75,0,0,1,.383.651v.441a3.3,3.3,0,0,1,.958-1.006,2.64,2.64,0,0,1,1.571-.45,2,2,0,0,1,1.379.536,3.217,3.217,0,0,1,.881,1.379,3.474,3.474,0,0,1,1.274-1.446,3.052,3.052,0,0,1,1.6-.469,3.282,3.282,0,0,1,1.7.469,3.532,3.532,0,0,1,1.293,1.37,4.452,4.452,0,0,1,.5,2.184v4.291a.791.791,0,0,1-.44.632,1.887,1.887,0,0,1-1.054.287,1.851,1.851,0,0,1-1.034-.287.79.79,0,0,1-.441-.632v-4.291a1.631,1.631,0,0,0-.182-.8,1.219,1.219,0,0,0-.479-.488,1.279,1.279,0,0,0-.622-.163,1.139,1.139,0,0,0-.584.163,1.277,1.277,0,0,0-.46.479,1.615,1.615,0,0,0-.182.814v4.31a.713.713,0,0,1-.469.69,2.47,2.47,0,0,1-1.025.211,2.443,2.443,0,0,1-1-.211.713.713,0,0,1-.479-.69V425.6a1.568,1.568,0,0,0-.191-.8,1.275,1.275,0,0,0-1.111-.651,1.192,1.192,0,0,0-.584.153,1.143,1.143,0,0,0-.45.469,1.693,1.693,0,0,0-.172.814v4.291a.791.791,0,0,1-.44.632A1.887,1.887,0,0,1,1159.1,430.8Z" transform="translate(-1088.92 -412.311)"/><path class="a" d="M1360.482,429.1a1.939,1.939,0,0,1-1.132-.315.938.938,0,0,1-.477-.758v-7.3a.889.889,0,0,1,.486-.782,2.15,2.15,0,0,1,1.123-.271,1.845,1.845,0,0,1,1.022.274.9.9,0,0,1,.453.78v.139a3.739,3.739,0,0,1,.279-.347,3.451,3.451,0,0,1,.842-.681,2,2,0,0,1,1.005-.279h.555a1.086,1.086,0,0,1,.856.439,1.528,1.528,0,0,1,.351,1,1.553,1.553,0,0,1-.351,1.017,1.086,1.086,0,0,1-.856.439h-.555a1.509,1.509,0,0,0-.9.324,2.474,2.474,0,0,0-.739.93,3.3,3.3,0,0,0-.291,1.446v2.873a.933.933,0,0,1-.51.76A2.082,2.082,0,0,1,1360.482,429.1Z" transform="translate(-1274.748 -410.464)"/><path class="a" d="M1362.329,430.8a1.782,1.782,0,0,1-1.044-.287.793.793,0,0,1-.412-.632v-7.3a.742.742,0,0,1,.412-.651,1.991,1.991,0,0,1,1.044-.249,1.688,1.688,0,0,1,.938.249.75.75,0,0,1,.383.651v.709a3.185,3.185,0,0,1,.546-.814,3.274,3.274,0,0,1,.8-.651,1.84,1.84,0,0,1,.929-.259h.555a.936.936,0,0,1,.737.383,1.372,1.372,0,0,1,.316.9,1.4,1.4,0,0,1-.316.919.935.935,0,0,1-.737.383h-.555a1.653,1.653,0,0,0-1,.354,2.613,2.613,0,0,0-.785.986,3.438,3.438,0,0,0-.307,1.513v2.873a.79.79,0,0,1-.441.632A1.922,1.922,0,0,1,1362.329,430.8Z" transform="translate(-1276.595 -412.311)"/><path class="a" d="M1441.751,506.319a1.55,1.55,0,0,1-1.164-.488,1.645,1.645,0,0,1,0-2.291,1.623,1.623,0,0,1,2.772,1.151,1.587,1.587,0,0,1-.475,1.142A1.539,1.539,0,0,1,1441.751,506.319Z" transform="translate(-1349.773 -487.567)"/><path class="a" d="M1443.6,508.013a1.4,1.4,0,0,1-1.054-.441,1.492,1.492,0,0,1,0-2.078,1.47,1.47,0,0,1,2.509,1.044,1.431,1.431,0,0,1-.431,1.034A1.384,1.384,0,0,1,1443.6,508.013Z" transform="translate(-1351.62 -489.413)"/></svg>